<svg xmlns="http://www.w3.org/2000/svg" width="639.876" height="118.342" viewBox="0 0 639.876 118.342"><g fill-rule="evenodd" clip-rule="evenodd" fill="#BE1622"><path d="M66.863 81.182c.858-.854 1.856-2.143 1.928-3.068.216-3.068-1.568-4.14-3.425-4.855-.643-.212-1.355-.07-2.5-.353l-27.838-4.145c-2.497-.357-8.99-2.71-11.276-10.135-2.282-7.424 2.997-13.42 3.785-14.205l38.03-38.03L59.17 0 0 59.168l44.438 44.438 22.425-22.424z"/><path d="M51.09 36.285c-.856.855-1.642 1.926-1.785 2.64 0 .567-.14 3.142 2.714 4.427.353.215 1.21.36 2.568.57l28.91 4.355c2.64.357 9.205 1.926 11.918 10.064 2.286 6.85-2.21 11.776-2.926 12.49l-40.414 40.417 7.096 7.094 59.17-59.173-45.068-45.065L51.09 36.285z"/></g><g fill="#063"><path d="M139.614 64.78c-6.998-1.104-9.104-5.315-8-10.58 2.055-9.735 12.16-12.366 24.37-12.366 16.737 0 22.683 4.37 21.524 12.314h-17.262c.37-1.525-.37-2.473-1.63-3-1.16-.578-2.792-.79-4.423-.79-4.422 0-6.21 1.106-6.527 2.687-.21 1.05.105 1.736 1.527 1.947l17.158 2.63c7.263 1.106 11.157 4.58 9.79 10.948-1.947 9.158-10.316 13.475-27 13.475-11.42 0-23.578-1.58-21.264-12.633h17.895c-.21 1.264.054 2.105 1 2.686 1 .525 2.58.79 4.896.79 4.63 0 6.158-1.265 6.527-3.054.21-1.105-.21-2.21-2.158-2.527l-16.42-2.526zM184.448 43.15h30.63c10.528 0 13.423 4.736 11.634 13.104-1.527 7.21-6.527 12.79-17.053 12.79h-15.897L191.29 80.73h-14.842l8-37.58zm11.262 16.737h9.58c3.736 0 5.422-1.158 6-3.895.58-2.844-.578-4-4.316-4h-9.578l-1.686 7.895zM239.86 43.15h18.21l8 37.578h-15.788l-.684-4.316h-15.475l-2.475 4.316H215.86l24-37.578zm6.74 11.368h-.106l-7.158 12.736h8.947L246.6 54.518zM301.216 64.78c-7-1.104-9.105-5.315-8-10.58 2.053-9.735 12.158-12.366 24.37-12.366 16.735 0 22.683 4.37 21.524 12.314h-17.264c.37-1.525-.367-2.473-1.63-3-1.16-.578-2.79-.79-4.42-.79-4.423 0-6.212 1.106-6.528 2.687-.21 1.05.105 1.736 1.527 1.947l17.156 2.63c7.265 1.106 11.16 4.58 9.792 10.948-1.947 9.158-10.316 13.475-27 13.475-11.422 0-23.58-1.58-21.264-12.633h17.895c-.21 1.264.053 2.105 1 2.686 1 .525 2.578.79 4.895.79 4.633 0 6.158-1.265 6.525-3.054.21-1.105-.21-2.21-2.156-2.527l-16.42-2.526zM353.944 52.623h-13.736l2-9.473h42.314l-2 9.473h-13.736l-6 28.105h-14.842l6-28.105zM385.937 43.15H417.2c4.263 0 6.735.367 8.58 1.367 2.524 1.37 4.052 5 3.155 9.105-.736 3.525-2.998 7.316-7.578 8.578l-.05.105c2.103.63 3.472 2.527 3.05 5.79l-1.105 8.21c-.21 1.686.21 3.264.896 4.422h-16.21c-.315-1.105.052-2.736.735-7.105.42-2.79-.158-4.473-2.895-4.473H395.25l-2.472 11.577h-14.842l8-37.577zm11.316 16.526h10.525c2.895 0 4.367-1.158 4.842-3.527.63-2.843-1.053-3.526-3.527-3.526H398.78l-1.527 7.052zM434.716 43.15h14.842l-7.998 37.578h-14.844l8-37.578zM454.976 43.15h28.895c12.737 0 18.42 4.945 15.474 18.79-2.787 13.21-10.684 18.788-23.156 18.788h-29.21l7.998-37.578zm8.84 28.104h8.526c6.79 0 10.264-3.367 11.527-9.314s-.737-9.316-7.528-9.316h-8.525l-4 18.63zM506.597 43.15h39.947l-1.947 9.156h-25.105l-1.104 5.053h23.314l-1.947 9.157H516.44l-1.052 5.053h25.105l-1.95 9.158h-39.946l8-37.578zM549.43 43.15h31.265c4.262 0 6.738.367 8.578 1.367 2.527 1.37 4.05 5 3.156 9.105-.735 3.525-2.997 7.316-7.575 8.578l-.055.105c2.105.63 3.473 2.527 3.05 5.79l-1.1 8.21c-.212 1.686.206 3.264.89 4.422h-16.207c-.316-1.105.05-2.736.734-7.105.422-2.79-.156-4.473-2.895-4.473h-10.527l-2.475 11.577h-14.84l8-37.577zm11.32 16.526h10.522c2.895 0 4.37-1.158 4.844-3.527.633-2.843-1.055-3.526-3.527-3.526h-10.317l-1.524 7.052zM601.843 64.78c-7-1.104-9.105-5.315-8-10.58 2.055-9.735 12.16-12.366 24.367-12.366 16.738 0 22.68 4.37 21.527 12.314h-17.262c.367-1.525-.367-2.473-1.633-3-1.16-.578-2.79-.79-4.422-.79-4.422 0-6.21 1.106-6.523 2.687-.21 1.05.105 1.736 1.523 1.947l17.16 2.63c7.262 1.106 11.156 4.58 9.79 10.948-1.95 9.158-10.317 13.475-27 13.475-11.423 0-23.583-1.58-21.267-12.633h17.895c-.21 1.264.055 2.105 1 2.686 1.004.525 2.578.79 4.898.79 4.63 0 6.156-1.265 6.523-3.054.21-1.105-.212-2.21-2.157-2.527l-16.42-2.526z"/></g></svg>